:SAMPLES-PER-SECOND 30
:FULLY-SPECIFIED
:DEGREES
394
root  64.3043 38.0199 3.84494 177.018 24.0142 -179.638
RightUpLeg  15.7042 -31.743 -8.6058
RightLeg  18.469 -1.40103 -0.233836
RightFoot  -18.9308 0.70332 12.4344
RightToes  -4.65661e-009 0 -3.6325e-017
Spine  2.60188 3.89975 6.28806
Spine1  5.97456 5.99198 -8.19989
HEad  -6.73568 28.9085 -15.2474
LeftShoulder1  -0.66422 5.2882 -31.061
LeftArm  -3.22598 24.6539 -29.9102
LeftForeArm  25.5744 -14.4679 -5.68072
LeftHand  0.00449254 8.10714 1.73772
RightShoulder  -0.967835 -6.21639 29.1283
RightArm  20.1349 -2.62189 42.7187
RightForeArm  10.5113 13.9495 6.66766
RightHand  -0.209387 4.34927 -2.76032
LeftUpLeg  -11.4414 12.126 -10.6128
LeftLeg  15.9264 33.3653 4.46953
LeftFoot  -6.72405 -0.639857 16.86
LeftToes  9.86798e-010 -1.28139e-010 1.4132e-011
395
root  65.1536 37.8667 3.34258 176.058 19.9304 178.323
RightUpLeg  12.4095 -33.2917 -11.471
RightLeg  30.3205 0.370953 -0.144731
RightFoot  -17.2715 0.823222 19.2588
RightToes  -4.65661e-009 0 -3.6325e-017
Spine  2.74372 4.07514 4.22158
Spine1  6.16622 6.28655 -9.28893
HEad  -7.1535 28.9597 -15.6072
LeftShoulder1  -0.680176 5.2999 -31.7186
LeftArm  -2.83293 24.3 -28.9079
LeftForeArm  24.1525 -16.7763 -4.83163
LeftHand  -0.0623804 6.71343 -2.01182
RightShoulder  -0.934038 -6.14649 28.7467
RightArm  15.6904 -2.65618 44.8119
RightForeArm  15.729 9.56763 7.30936
RightHand  -0.0900462 3.64469 -1.41749
LeftUpLeg  -11.154 13.9969 -12.7148
LeftLeg  18.5632 27.6217 5.89604
LeftFoot  -7.98008 -0.424669 16.0451
LeftToes  9.86798e-010 -1.28139e-010 1.4132e-011
396
root  65.8991 37.7846 2.92958 176.321 15.2633 177.426
RightUpLeg  5.96756 -32.5371 -11.9763
RightLeg  43.3261 1.2837 1.05638
RightFoot  -8.60382 -0.391856 21.4051
RightToes  -4.65661e-009 0 -3.6325e-017
Spine  3.68034 3.94232 3.65316
Spine1  4.75765 6.16549 -10.465
HEad  -8.14668 29.1886 -16.4379
LeftShoulder1  -0.641687 5.17869 -32.1654
LeftArm  -3.09993 24.0048 -29.135
LeftForeArm  21.3847 -18.5137 -4.3532
LeftHand  -0.0617109 8.41483 -0.551512
RightShoulder  -0.792284 -5.8244 27.5375
RightArm  12.6251 -4.65687 47.3749
RightForeArm  19.2386 7.93131 6.70899
RightHand  -0.0558953 2.88422 -1.00694
LeftUpLeg  -11.1124 13.7004 -13.5356
LeftLeg  20.0521 23.6784 6.24374
LeftFoot  -8.8245 -0.296388 15.8141
LeftToes  9.86798e-010 -1.28139e-010 1.4132e-011
397
root  66.6511 37.7834 2.53428 176.036 10.8808 176.688
RightUpLeg  -0.829593 -29.5168 -12.0686
RightLeg  54.9034 3.09072 4.36357
RightFoot  3.1439 -1.7951 13.6322
RightToes  -4.65661e-009 0 -3.6325e-017
Spine  5.64674 3.88959 3.25643
Spine1  3.49236 6.18612 -11.232
HEad  -10.5201 29.2871 -17.2653
LeftShoulder1  -0.660006 5.21688 -32.3165
LeftArm  -2.53323 23.2768 -30.5241
LeftForeArm  20.6528 -20.9738 -3.97867
LeftHand  -0.0455194 8.57865 -0.0781088
RightShoulder  -0.755092 -5.71685 27.4797
RightArm  12.903 -5.86408 48.0155
RightForeArm  19.5219 8.90227 6.62097
RightHand  -0.0433082 3.01695 -0.833736
LeftUpLeg  -10.0053 13.267 -13.7542
LeftLeg  20.7743 20.0232 6.08805
LeftFoot  -9.43486 -0.194813 15.0096
LeftToes  9.86798e-010 -1.28139e-010 1.4132e-011
398
root  67.4151 37.622 2.30011 176.176 6.47227 175.314
RightUpLeg  -6.32601 -25.6443 -12.9852
RightLeg  62.1842 4.37813 8.35421
RightFoot  3.61286 -1.80725 13.8911
RightToes  -4.65661e-009 0 -3.6325e-017
Spine  6.47858 4.12364 0.405364
Spine1  4.25201 5.97302 -10.1863
HEad  -13.4423 29.078 -18.8458
LeftShoulder1  -0.853749 5.6843 -33.0709
LeftArm  -2.56441 21.4288 -31.8846
LeftForeArm  19.1727 -23.6032 -4.0485
LeftHand  -0.0372164 6.55816 0.376512
RightShoulder  -0.704882 -5.57814 27.3184
RightArm  14.4847 -5.6486 48.2723
RightForeArm  17.3382 10.7119 6.69414
RightHand  -0.0773019 4.24455 -1.19944
LeftUpLeg  -10.4708 11.2736 -14.666
LeftLeg  23.1374 17.6372 6.66624
LeftFoot  -10.1004 -0.0896023 13.8571
LeftToes  9.86798e-010 -1.28139e-010 1.4132e-011
399
root  68.2352 37.6416 1.99318 176.888 1.06775 175.3
RightUpLeg  -10.2978 -21.6088 -12.7133
RightLeg  64.6031 4.37686 9.39463
RightFoot  1.92798 -1.55294 13.4101
RightToes  -4.65661e-009 0 -3.6325e-017
Spine  6.72647 3.78085 -0.0497692
Spine1  4.75632 5.5286 -10.1636
HEad  -13.361 29.1708 -18.5722
LeftShoulder1  -0.54459 4.88169 -33.3999
LeftArm  -2.99101 21.0259 -33.3852
LeftForeArm  19.6611 -26.1658 -4.56186
LeftHand  -0.00519283 6.11689 3.41819
RightShoulder  -0.755468 -5.71937 27.4545
RightArm  17.4979 -5.3992 48.441
RightForeArm  14.4356 12.8609 6.68465
RightHand  -0.173247 4.28301 -2.36448
LeftUpLeg  -10.5594 10.5213 -14.0277
LeftLeg  24.1237 12.8928 5.86748
LeftFoot  -10.4693 -0.0375998 13.2505
LeftToes  9.86798e-010 -1.28139e-010 1.4132e-011
400
root  69.0842 37.7767 1.63294 177.462 -4.81809 175.46
RightUpLeg  -12.3511 -17.0825 -13.0378
RightLeg  63.118 3.92059 7.88022
RightFoot  1.06751 -1.35306 12.4699
RightToes  -4.65661e-009 0 -3.6325e-017
Spine  7.19521 3.43967 -0.898328
Spine1  4.57582 4.93517 -9.32738
HEad  -12.4116 29.1968 -17.6551
LeftShoulder1  -0.628255 5.15366 -31.9089
LeftArm  -2.91047 20.5566 -36.9261
LeftForeArm  22.8293 -28.4542 -4.90809
LeftHand  -0.0133234 5.97392 3.14253
RightShoulder  -0.835449 -5.9457 27.6117
RightArm  20.5451 -5.70969 48.2076
RightForeArm  12.1347 15.5618 6.09434
RightHand  -0.174778 4.05273 -2.42977
LeftUpLeg  -9.9423 7.32644 -12.8655
LeftLeg  24.1064 10.167 4.95585
LeftFoot  -10.0703 -0.078291 12.466
LeftToes  9.86798e-010 -1.28139e-010 1.4132e-011
401
root  69.9428 37.9743 1.23911 177.914 -10.5479 175.689
RightUpLeg  -12.8662 -11.4218 -13.689
RightLeg  58.452 2.91901 4.70394
RightFoot  -1.03692 -1.08238 11.8732
RightToes  -4.65661e-009 0 -3.6325e-017
Spine  7.86841 3.10342 -2.05379
Spine1  3.99967 4.15268 -7.62394
HEad  -11.0701 29.4485 -16.5516
LeftShoulder1  -0.602693 5.08599 -31.9396
LeftArm  -0.989215 20.23 -38.2012
LeftForeArm  24.7968 -30.7964 -5.34321
LeftHand  -0.0212179 5.65485 2.48482
RightShoulder  -0.796822 -5.85209 27.316
RightArm  21.9959 -5.95415 48.1601
RightForeArm  10.4694 17.4303 5.49849
RightHand  -0.132359 4.68255 -1.81528
LeftUpLeg  -8.97623 5.35974 -11.2332
LeftLeg  23.1139 6.45459 3.12838
LeftFoot  -9.4584 -0.139852 11.9731
LeftToes  9.86798e-010 -1.28139e-010 1.4132e-011
402
root  70.797 38.1867 0.829087 178.321 -16.4392 175.697
RightUpLeg  -11.9288 -4.88647 -14.9438
RightLeg  51.4447 2.3835 2.82247
RightFoot  -3.71901 -0.759325 10.9867
RightToes  -4.65661e-009 0 -3.6325e-017
Spine  8.70909 2.61622 -2.75849
Spine1  3.3793 3.45056 -6.8189
HEad  -9.88738 29.5935 -14.778
LeftShoulder1  -0.697511 5.36146 -31.4212
LeftArm  0.975738 19.6911 -39.3323
LeftForeArm  26.1717 -32.7317 -5.73621
LeftHand  -0.0320113 4.96413 1.77371
RightShoulder  -0.780547 -5.78095 27.6363
RightArm  23.3259 -5.79037 47.9882
RightForeArm  9.17062 18.6977 5.17584
RightHand  -0.176669 4.41693 -2.37238
LeftUpLeg  -7.97153 2.49927 -9.83753
LeftLeg  21.7352 3.28581 1.64223
LeftFoot  -8.46982 -0.229091 11.1378
LeftToes  9.86798e-010 -1.28139e-010 1.4132e-011
403
root  71.6873 38.3047 0.419956 179.564 -22.2621 175.242
RightUpLeg  -11.1849 2.9977 -16.5805
RightLeg  43.8568 2.76969 2.55089
RightFoot  -6.31342 -0.492201 10.2108
RightToes  -4.65661e-009 0 -3.6325e-017
Spine  8.86057 2.26262 -2.88946
Spine1  2.99317 3.26404 -7.41373
HEad  -9.47163 28.531 -12.1072
LeftShoulder1  -0.66231 5.34612 -29.7312
LeftArm  2.55975 19.0362 -41.1709
LeftForeArm  27.3903 -34.1068 -6.01011
LeftHand  -0.0281051 5.26825 1.57274
RightShoulder  -0.884545 -6.01356 28.6635
RightArm  24.7937 -5.27102 47.2599
RightForeArm  8.10632 19.7058 4.97733
RightHand  -0.136721 4.62944 -1.85789
LeftUpLeg  -8.42064 0.783576 -8.72695
LeftLeg  21.149 -0.797064 0.00697138
LeftFoot  -7.62317 -0.297429 10.5446
LeftToes  9.86798e-010 -1.28139e-010 1.4132e-011
404
root  72.5634 38.3341 -0.0554714 -179.128 -28.282 174.704
RightUpLeg  -9.82089 11.2496 -18.1305
RightLeg  36.5713 3.97058 2.88077
RightFoot  -8.85848 -0.265501 9.42323
RightToes  -4.65661e-009 0 -3.6325e-017
Spine  8.73126 2.39842 -3.01845
Spine1  2.65217 3.41231 -7.33409
HEad  -8.81346 25.8723 -11.1912
LeftShoulder1  -0.47835 4.8664 -28.9718
LeftArm  4.20359 18.0484 -42.324
LeftForeArm  27.8371 -34.2042 -6.01038
LeftHand  -0.0360749 4.88503 -0.296199
RightShoulder  -0.949402 -6.18256 28.8812
RightArm  25.407 -5.60964 46.4026
RightForeArm  6.48875 20.5233 4.84547
RightHand  -0.222099 5.29274 -2.72271
LeftUpLeg  -9.24396 -1.69362 -7.69911
LeftLeg  21.0651 -4.28213 -1.27115
LeftFoot  -7.12461 -0.320365 9.84305
LeftToes  9.86798e-010 -1.28139e-010 1.4132e-011
405
root  73.3696 38.3352 -0.581369 -178.741 -34.2251 174.472
RightUpLeg  -7.1652 19.3213 -18.7331
RightLeg  30.1358 6.44543 3.80631
RightFoot  -10.0618 -0.161674 8.22059
RightToes  -4.65661e-009 0 -3.6325e-017
Spine  8.46464 2.17463 -2.12735
Spine1  3.30795 3.33755 -7.72455
HEad  -7.99931 23.6344 -11.0997
LeftShoulder1  -0.53197 5.00603 -29.2152
LeftArm  5.68915 16.9261 -42.4426
LeftForeArm  27.5201 -34.631 -6.13822
LeftHand  0.0492853 7.16127 1.27664
RightShoulder  -0.920933 -6.10798 28.7782
RightArm  26.5211 -5.20548 46.1014
RightForeArm  6.3778 20.3524 4.93321
RightHand  -0.193661 4.86255 -2.53109
LeftUpLeg  -9.61513 -4.18805 -6.28002
LeftLeg  21.6655 -7.59815 -2.64522
LeftFoot  -6.95044 -0.296365 8.80366
LeftToes  9.86798e-010 -1.28139e-010 1.4132e-011
